<mxfile host="app.diagrams.net" modified="2023-06-28T20:27:05.236Z" agent="Mozilla/5.0 (Macintosh; Intel Mac OS X 10_15_7) AppleWebKit/537.36 (KHTML, like Gecko) Chrome/114.0.0.0 Safari/537.36" etag="Kz5PvgKEXCAuIizxckn1" version="21.5.1" type="device">
  <diagram name="Page-1" id="0783ab3e-0a74-02c8-0abd-f7b4e66b4bec">
    <mxGraphModel dx="1063" dy="544" grid="1" gridSize="10" guides="1" tooltips="1" connect="1" arrows="1" fold="1" page="1" pageScale="1" pageWidth="850" pageHeight="1100" background="none" math="0" shadow="0">
      <root>
        <mxCell id="0" />
        <mxCell id="1" parent="0" />
        <mxCell id="i9r0VWMGvurxpIte8bQX-3" value="" style="ellipse;whiteSpace=wrap;html=1;rounded=0;shadow=0;comic=0;labelBackgroundColor=none;strokeWidth=1;fillColor=#000000;fontFamily=Verdana;fontSize=12;align=center;" vertex="1" parent="1">
          <mxGeometry x="430" y="50" width="40" height="40" as="geometry" />
        </mxCell>
        <mxCell id="i9r0VWMGvurxpIte8bQX-14" value="System otrzymuje polecenie aby przejść w stan uśpienia" style="rounded=1;whiteSpace=wrap;html=1;shadow=0;comic=0;labelBackgroundColor=none;strokeWidth=1;fontFamily=Verdana;fontSize=12;align=center;arcSize=50;" vertex="1" parent="1">
          <mxGeometry x="350" y="130" width="190" height="30" as="geometry" />
        </mxCell>
        <mxCell id="i9r0VWMGvurxpIte8bQX-15" value="" style="endArrow=classic;html=1;rounded=0;exitX=0.5;exitY=1;exitDx=0;exitDy=0;" edge="1" parent="1" source="i9r0VWMGvurxpIte8bQX-3">
          <mxGeometry width="50" height="50" relative="1" as="geometry">
            <mxPoint x="390" y="300" as="sourcePoint" />
            <mxPoint x="450" y="130" as="targetPoint" />
          </mxGeometry>
        </mxCell>
        <mxCell id="i9r0VWMGvurxpIte8bQX-16" value="" style="whiteSpace=wrap;html=1;rounded=0;shadow=0;comic=0;labelBackgroundColor=none;strokeWidth=1;fillColor=#000000;fontFamily=Verdana;fontSize=12;align=center;rotation=0;" vertex="1" parent="1">
          <mxGeometry x="386.5" y="520" width="147" height="10" as="geometry" />
        </mxCell>
        <mxCell id="i9r0VWMGvurxpIte8bQX-17" value="" style="endArrow=classic;html=1;rounded=0;exitX=0.541;exitY=1.046;exitDx=0;exitDy=0;exitPerimeter=0;" edge="1" parent="1" source="i9r0VWMGvurxpIte8bQX-14">
          <mxGeometry width="50" height="50" relative="1" as="geometry">
            <mxPoint x="470" y="410" as="sourcePoint" />
            <mxPoint x="453" y="200" as="targetPoint" />
          </mxGeometry>
        </mxCell>
        <mxCell id="i9r0VWMGvurxpIte8bQX-18" value="W celu oszczędzenia energii system wyłącza moduł pomiarów oraz część komponentów modułu interfejsu użytkownika" style="rounded=1;whiteSpace=wrap;html=1;shadow=0;comic=0;labelBackgroundColor=none;strokeWidth=1;fontFamily=Verdana;fontSize=12;align=center;arcSize=50;" vertex="1" parent="1">
          <mxGeometry x="330" y="200" width="230" height="70" as="geometry" />
        </mxCell>
        <mxCell id="i9r0VWMGvurxpIte8bQX-19" value="" style="endArrow=classic;html=1;rounded=0;exitX=0.542;exitY=1.02;exitDx=0;exitDy=0;exitPerimeter=0;" edge="1" parent="1" source="i9r0VWMGvurxpIte8bQX-18">
          <mxGeometry width="50" height="50" relative="1" as="geometry">
            <mxPoint x="530" y="420" as="sourcePoint" />
            <mxPoint x="455" y="310" as="targetPoint" />
          </mxGeometry>
        </mxCell>
        <mxCell id="i9r0VWMGvurxpIte8bQX-20" value="W jednostce głównej pozostają działające tylko najbardziej niezbędne komponenty, takie jak zegar systemowy" style="rounded=1;whiteSpace=wrap;html=1;shadow=0;comic=0;labelBackgroundColor=none;strokeWidth=1;fontFamily=Verdana;fontSize=12;align=center;arcSize=50;" vertex="1" parent="1">
          <mxGeometry x="340" y="310" width="220" height="60" as="geometry" />
        </mxCell>
        <mxCell id="i9r0VWMGvurxpIte8bQX-23" value="" style="endArrow=classic;html=1;rounded=0;exitX=0.535;exitY=1.038;exitDx=0;exitDy=0;exitPerimeter=0;" edge="1" parent="1" source="i9r0VWMGvurxpIte8bQX-20">
          <mxGeometry width="50" height="50" relative="1" as="geometry">
            <mxPoint x="410" y="520" as="sourcePoint" />
            <mxPoint x="458" y="430" as="targetPoint" />
          </mxGeometry>
        </mxCell>
        <mxCell id="i9r0VWMGvurxpIte8bQX-24" value="System czeka na interakcję zewnętrzną lub wewnętrzną" style="rounded=1;whiteSpace=wrap;html=1;shadow=0;comic=0;labelBackgroundColor=none;strokeWidth=1;fontFamily=Verdana;fontSize=12;align=center;arcSize=50;" vertex="1" parent="1">
          <mxGeometry x="350" y="430" width="220" height="50" as="geometry" />
        </mxCell>
        <mxCell id="i9r0VWMGvurxpIte8bQX-25" value="" style="endArrow=classic;html=1;rounded=0;exitX=0.5;exitY=1;exitDx=0;exitDy=0;" edge="1" parent="1" source="i9r0VWMGvurxpIte8bQX-24">
          <mxGeometry width="50" height="50" relative="1" as="geometry">
            <mxPoint x="480" y="690" as="sourcePoint" />
            <mxPoint x="460" y="520" as="targetPoint" />
          </mxGeometry>
        </mxCell>
        <mxCell id="i9r0VWMGvurxpIte8bQX-26" value="Naciśnięcie przycisku zasilania&amp;nbsp;" style="rounded=1;whiteSpace=wrap;html=1;shadow=0;comic=0;labelBackgroundColor=none;strokeWidth=1;fontFamily=Verdana;fontSize=12;align=center;arcSize=50;" vertex="1" parent="1">
          <mxGeometry x="200" y="580" width="220" height="30" as="geometry" />
        </mxCell>
        <mxCell id="i9r0VWMGvurxpIte8bQX-28" value="Zaprogramowane zdarzenie, uruchamiające stację ze stanu skupienia" style="rounded=1;whiteSpace=wrap;html=1;shadow=0;comic=0;labelBackgroundColor=none;strokeWidth=1;fontFamily=Verdana;fontSize=12;align=center;arcSize=50;" vertex="1" parent="1">
          <mxGeometry x="480" y="570" width="220" height="60" as="geometry" />
        </mxCell>
        <mxCell id="i9r0VWMGvurxpIte8bQX-29" value="" style="endArrow=classic;html=1;rounded=0;exitX=0.25;exitY=1;exitDx=0;exitDy=0;entryX=0.75;entryY=0;entryDx=0;entryDy=0;" edge="1" parent="1" source="i9r0VWMGvurxpIte8bQX-16" target="i9r0VWMGvurxpIte8bQX-26">
          <mxGeometry width="50" height="50" relative="1" as="geometry">
            <mxPoint x="330" y="700" as="sourcePoint" />
            <mxPoint x="380" y="650" as="targetPoint" />
          </mxGeometry>
        </mxCell>
        <mxCell id="i9r0VWMGvurxpIte8bQX-30" value="" style="endArrow=classic;html=1;rounded=0;exitX=0.75;exitY=1;exitDx=0;exitDy=0;entryX=0.25;entryY=0;entryDx=0;entryDy=0;" edge="1" parent="1" source="i9r0VWMGvurxpIte8bQX-16" target="i9r0VWMGvurxpIte8bQX-28">
          <mxGeometry width="50" height="50" relative="1" as="geometry">
            <mxPoint x="510" y="700" as="sourcePoint" />
            <mxPoint x="560" y="650" as="targetPoint" />
          </mxGeometry>
        </mxCell>
        <mxCell id="i9r0VWMGvurxpIte8bQX-31" value="" style="whiteSpace=wrap;html=1;rounded=0;shadow=0;comic=0;labelBackgroundColor=none;strokeWidth=1;fillColor=#000000;fontFamily=Verdana;fontSize=12;align=center;rotation=0;" vertex="1" parent="1">
          <mxGeometry x="386.5" y="680" width="147" height="10" as="geometry" />
        </mxCell>
        <mxCell id="i9r0VWMGvurxpIte8bQX-32" value="" style="endArrow=classic;html=1;rounded=0;exitX=0.75;exitY=1;exitDx=0;exitDy=0;entryX=0.25;entryY=0;entryDx=0;entryDy=0;" edge="1" parent="1" source="i9r0VWMGvurxpIte8bQX-26" target="i9r0VWMGvurxpIte8bQX-31">
          <mxGeometry width="50" height="50" relative="1" as="geometry">
            <mxPoint x="270" y="710" as="sourcePoint" />
            <mxPoint x="320" y="660" as="targetPoint" />
          </mxGeometry>
        </mxCell>
        <mxCell id="i9r0VWMGvurxpIte8bQX-33" value="" style="endArrow=classic;html=1;rounded=0;exitX=0.25;exitY=1;exitDx=0;exitDy=0;entryX=0.75;entryY=0;entryDx=0;entryDy=0;" edge="1" parent="1" source="i9r0VWMGvurxpIte8bQX-28" target="i9r0VWMGvurxpIte8bQX-31">
          <mxGeometry width="50" height="50" relative="1" as="geometry">
            <mxPoint x="240" y="760" as="sourcePoint" />
            <mxPoint x="290" y="710" as="targetPoint" />
          </mxGeometry>
        </mxCell>
        <mxCell id="i9r0VWMGvurxpIte8bQX-34" value="" style="endArrow=classic;html=1;rounded=0;exitX=0.5;exitY=1;exitDx=0;exitDy=0;" edge="1" parent="1" source="i9r0VWMGvurxpIte8bQX-31">
          <mxGeometry width="50" height="50" relative="1" as="geometry">
            <mxPoint x="430" y="860" as="sourcePoint" />
            <mxPoint x="460" y="740" as="targetPoint" />
          </mxGeometry>
        </mxCell>
        <mxCell id="i9r0VWMGvurxpIte8bQX-35" value="Reaktywacja systemu po konkretnym zdarzeniu" style="rounded=1;whiteSpace=wrap;html=1;shadow=0;comic=0;labelBackgroundColor=none;strokeWidth=1;fontFamily=Verdana;fontSize=12;align=center;arcSize=50;" vertex="1" parent="1">
          <mxGeometry x="350" y="740" width="220" height="30" as="geometry" />
        </mxCell>
        <mxCell id="i9r0VWMGvurxpIte8bQX-36" value="" style="endArrow=classic;html=1;rounded=0;exitX=0.5;exitY=1;exitDx=0;exitDy=0;" edge="1" parent="1" source="i9r0VWMGvurxpIte8bQX-35">
          <mxGeometry width="50" height="50" relative="1" as="geometry">
            <mxPoint x="470" y="870" as="sourcePoint" />
            <mxPoint x="460" y="820" as="targetPoint" />
          </mxGeometry>
        </mxCell>
        <mxCell id="i9r0VWMGvurxpIte8bQX-37" value="" style="shape=mxgraph.bpmn.shape;html=1;verticalLabelPosition=bottom;labelBackgroundColor=#ffffff;verticalAlign=top;perimeter=ellipsePerimeter;outline=end;symbol=terminate;rounded=0;shadow=0;comic=0;strokeWidth=1;fontFamily=Verdana;fontSize=12;align=center;" vertex="1" parent="1">
          <mxGeometry x="440" y="820" width="40" height="40" as="geometry" />
        </mxCell>
        <mxCell id="i9r0VWMGvurxpIte8bQX-38" value="&lt;font style=&quot;font-size: 24px;&quot;&gt;Uśpienie&lt;/font&gt;" style="text;html=1;strokeColor=none;fillColor=none;align=center;verticalAlign=middle;whiteSpace=wrap;rounded=0;" vertex="1" parent="1">
          <mxGeometry x="350" width="200" height="30" as="geometry" />
        </mxCell>
      </root>
    </mxGraphModel>
  </diagram>
</mxfile>
